<svg width="151" height="112" viewBox="0 0 151 112" fill="none" xmlns="http://www.w3.org/2000/svg">
<g opacity="0.7">
<path d="M0.3309 77.7817C10.5635 77.7817 20.6099 77.8138 30.6498 77.7175C31.4271 77.711 32.1914 76.7925 32.9687 76.2979C32.2043 75.9189 31.4399 75.2123 30.6691 75.2059C21.1623 75.1288 11.6491 75.1738 2.1359 75.1416C0.382288 75.1288 -0.529848 75.5592 0.3309 77.7817Z" fill="white"/>
<path d="M10.3711 69.8872C10.4996 70.2984 10.628 70.7095 10.7565 71.1206C20.5395 71.1206 30.316 71.1206 40.099 71.1206C40.2147 70.8187 40.3367 70.5168 40.4523 70.2148C39.4503 69.7267 38.4482 68.8209 37.4397 68.8081C29.4425 68.6925 21.4452 68.6989 13.4479 68.7953C12.4138 68.8081 11.3924 69.5083 10.3711 69.8872Z" fill="white"/>
<path d="M25.935 54.1112C18.9719 54.1112 12.041 54.1882 5.11001 54.0469C3.65188 54.0148 2.20659 53.1669 0.754883 52.6916C2.21944 52.2548 3.67757 51.4711 5.15498 51.4454C11.9896 51.3105 18.8242 51.3876 25.9221 51.3876C25.9992 50.1479 26.0699 49.1458 26.1598 47.6812C24.13 47.6812 22.325 47.829 20.5714 47.617C19.6978 47.5142 18.9013 46.7627 18.0726 46.3002C18.8563 45.8313 19.6014 45.054 20.4236 44.9577C22.1901 44.7521 23.9951 44.8934 26.1534 44.8934C26.1534 40.0694 26.1341 35.6051 26.1598 31.1471C26.1791 27.2802 27.7015 25.7514 31.4913 25.7514C40.2722 25.745 49.0467 25.7321 57.8276 25.7578C61.5982 25.7707 62.8059 26.9847 62.8123 30.7617C62.8316 38.9003 62.8187 47.0325 62.8187 55.171C62.8187 56.2181 62.8187 57.2587 62.8187 58.4534C65.0348 58.4534 66.9169 58.4534 68.5356 58.4534C68.7219 43.3903 71.8758 29.5413 82.3461 17.767C82.2883 17.6707 82.0635 17.0347 81.6395 16.5851C77.5799 12.2685 78.9995 5.14483 83.9263 1.74681C88.6219 -1.49064 95.1996 -0.128856 98.482 5.00994C99.5675 6.70574 100.666 7.26459 102.561 7.20035C103.409 7.16824 104.282 7.9519 105.15 8.36943C104.385 8.91543 103.679 9.59632 102.837 9.96246C102.188 10.2451 101.373 10.1423 100.3 10.2451C100.075 15.0113 97.3193 18.1653 93.3303 20.1694C95.8612 25.1026 98.2443 29.8689 100.743 34.5773C102.349 37.6028 106.261 38.7526 109.909 37.333C116.179 34.8856 122.634 34.102 129.886 34.7957C129.392 39.7868 129.045 44.5401 128.332 49.2357C128.216 49.9873 126.559 50.7774 125.493 51.0343C124.433 51.2912 123.212 50.8994 121.716 50.7581C125.332 58.3121 128.782 65.5193 132.192 72.6494C135.411 73.4009 139.31 74.2745 143.177 75.2573C143.973 75.4564 144.705 76.0153 145.399 76.5035C149.112 79.105 149.17 80.3062 145.611 83.807C149.947 88.6696 152.176 94.2452 149.96 100.791C148.534 105.005 145.907 108.634 141.757 110.182C134.1 113.04 123.489 112.809 118.69 99.7051C112.928 100.559 112.928 100.559 112.138 96.1465C109.351 96.4548 106.64 96.988 103.916 97.0137C93.1055 97.1229 82.2947 97.0779 71.484 97.0972C71.2785 97.0972 71.0793 97.2 70.8738 97.2578C67.6877 107.503 63.1977 111.518 54.7379 111.653C46.3938 111.794 42.1351 108.113 38.1139 97.3027C31.5556 96.5126 31.4464 96.3906 32.397 90.6673C24.5668 90.6673 16.7815 90.7251 8.99623 90.6159C7.49955 90.5966 6.01573 89.9286 4.52548 89.5624C4.57044 89.1449 4.62183 88.7274 4.66679 88.3098C5.84872 88.1557 7.03064 87.8666 8.21256 87.8602C15.7088 87.8217 23.1986 87.7638 30.6948 87.8859C33.0843 87.9244 34.5361 87.1215 35.4096 84.2181C32.5833 84.2181 30.0075 84.2181 27.4252 84.2181C24.0015 84.2181 20.5714 84.3016 17.1541 84.1538C16.3062 84.1153 15.4968 83.3316 14.6682 82.8884C15.4711 82.4259 16.2612 81.5844 17.077 81.5716C23.1793 81.456 29.2816 81.5909 35.3775 81.4431C36.5916 81.411 37.8763 80.6723 38.9618 79.9914C40.9403 78.7517 42.8994 77.4349 44.6723 75.9189C46.0662 74.7242 47.1646 73.1889 48.899 71.2362C44.6723 70.3048 43.6767 68.0052 43.4454 65.166C43.2463 62.6801 42.2828 61.2926 39.4051 61.6523C37.0862 61.9414 34.7031 61.7101 32.3456 61.7101C27.6501 61.7101 26.436 60.5218 26.1727 55.7042C26.147 55.2802 26.0506 54.8691 25.935 54.1112ZM29.1981 44.9448C33.5982 44.9448 37.5422 44.8742 41.4734 45.0026C42.3534 45.0348 43.2013 45.7735 44.0685 46.191C43.1757 46.692 42.2956 47.572 41.3771 47.617C38.069 47.7904 34.7416 47.5592 31.4399 47.7776C30.5984 47.8354 29.8341 48.9788 29.0311 49.6211C29.8148 50.18 30.5342 51.0407 31.395 51.2206C32.731 51.4904 34.1956 51.1114 35.5381 51.3619C36.4888 51.5353 37.3367 52.2933 38.236 52.7943C37.3817 53.2247 36.5659 53.8927 35.6666 54.0341C34.3112 54.246 32.8146 53.8157 31.5299 54.1882C30.6049 54.458 29.5193 55.4537 29.2302 56.353C28.7485 57.8625 29.667 58.6333 31.35 58.6269C40.1245 58.5819 48.8926 58.6654 57.6606 58.5112C58.4572 58.4984 59.896 57.1302 59.9089 56.3722C60.0759 47.9253 60.0695 39.472 59.9346 31.0251C59.9217 30.19 58.7912 28.7319 58.0717 28.6613C55.2518 28.385 52.387 28.5456 50.3635 28.5456C48.0575 30.9095 51.5069 34.9756 46.8435 35.3674C44.8522 35.5344 42.1415 35.984 40.9788 34.9434C39.6235 33.7294 39.6042 31.0251 38.9297 28.7062C36.4374 28.7062 33.7588 28.5713 31.1123 28.7962C30.425 28.854 29.3073 29.9973 29.2816 30.6782C29.121 35.2646 29.1981 39.8574 29.1981 44.9448ZM50.2544 72.431C50.492 72.7457 50.7297 73.0605 50.9674 73.3752C57.3459 73.2853 63.8722 72.3988 69.5184 76.4649C75.4923 80.7687 76.0832 87.2564 76.3209 94.1488C86.014 94.1488 95.5143 94.0589 105.008 94.2066C107.61 94.2452 109.363 93.4679 111.027 91.4766C116.301 85.1559 121.786 79.015 127.073 72.7072C127.632 72.0391 127.812 70.5232 127.458 69.7202C125.281 64.8512 122.911 60.0722 120.572 55.2802C119.821 53.745 118.806 52.3254 118.234 50.7324C117.907 49.8331 117.939 48.5356 118.382 47.7326C118.62 47.3022 120.091 47.4179 120.977 47.5142C122.487 47.6812 123.977 48.0345 125.589 48.3364C126.084 44.4566 126.514 41.0971 127.034 36.999C122.673 37.5514 118.697 38.0588 114.438 38.5984C118.382 44.1162 117.887 46.5443 112.781 50.0194C114.175 55.1389 115.356 60.2199 116.956 65.1596C119.628 73.3816 117.412 79.9464 110.944 85.4257C108.381 87.6033 105.683 88.9072 102.253 88.8109C97.8653 88.6824 93.4781 88.8045 89.0844 88.7723C81.1449 88.7145 77.3679 83.7299 79.4427 76.118C79.9309 74.313 80.3934 72.508 80.9651 70.3176C71.3298 70.3176 62.1442 70.2598 52.9651 70.4076C52.0465 70.4204 51.1536 71.7244 50.2544 72.431ZM54.1149 81.3982C54.3461 81.8221 54.5709 82.2461 54.8022 82.67C53.89 83.1839 52.9972 84.0832 52.0658 84.1346C48.7577 84.3144 45.4303 84.3401 42.1286 84.1603C39.7455 84.0318 38.3195 84.7962 37.6964 87.8795C41.2165 87.8795 44.5053 87.8795 47.7877 87.8795C47.9098 88.3291 48.0382 88.7788 48.1603 89.2284C47.216 89.6973 46.2975 90.481 45.3211 90.5645C42.983 90.7636 40.6127 90.7315 38.2681 90.603C36.0263 90.4746 35.2234 91.4895 35.2876 93.924C36.5016 94.0011 37.6322 94.1295 38.7563 94.1295C48.1667 94.1488 57.5771 94.136 66.9876 94.136C73.2376 94.136 73.2376 94.136 72.8329 87.9823C72.4925 82.8691 68.9403 78.1222 64.1227 76.8182C57.6992 75.0839 51.4234 75.7326 45.4688 78.771C44.5567 79.2399 43.8309 80.0749 43.0215 80.743C43.1243 80.9614 43.2335 81.1733 43.3362 81.3917C46.9334 81.3982 50.5241 81.3982 54.1149 81.3982ZM72.8329 44.0712C74.4581 44.4245 75.7878 44.7521 77.1303 45.0091C83.9327 46.2938 83.8621 46.2552 86.5664 39.7739C87.3436 37.9111 88.6604 36.2667 89.7267 34.5259C91.1592 36.2346 92.6559 37.8982 94.0112 39.6711C94.9619 40.9109 95.4886 43.1655 96.6127 43.4674C101.533 44.7971 106.582 45.6964 111.631 46.4479C112.337 46.5507 113.288 44.9769 114.13 44.174C113.372 43.3903 112.742 42.1763 111.836 41.9065C109.402 41.1871 106.852 40.7952 104.327 40.4034C101.019 39.896 98.7967 38.3479 97.4285 35.0848C95.7841 31.1664 93.7543 27.3766 91.5446 23.7409C89.3028 20.0538 84.7485 19.3022 82.3333 22.1928C77.0789 28.4814 74.7022 36.0611 72.8329 44.0712ZM71.696 47.1031C71.696 50.4562 71.3363 53.4495 71.8566 56.2823C72.0942 57.5734 73.9057 59.2435 75.2674 59.5326C80.7403 60.7209 86.303 61.5688 91.8658 62.2818C96.3044 62.8535 97.5955 64.2988 97.1395 68.7953C96.8632 71.5509 96.6448 74.3259 96.5742 77.0944C96.5164 79.5739 98.6233 79.6317 100.203 79.5739C101.167 79.5418 102.837 78.559 102.921 77.8652C103.512 72.6044 103.788 67.3114 104.147 62.0249C104.359 58.8967 102.998 56.9696 99.8502 56.2951C95.4822 55.3637 91.1142 54.3938 86.7784 53.3211C85.6029 53.032 83.5859 52.319 83.573 51.7537C83.4895 48.4649 80.9073 48.8824 79.0445 48.4007C76.9889 47.8675 74.8628 47.6427 71.696 47.1031ZM90.6517 38.6305C90.3755 38.8168 90.0929 39.0095 89.8167 39.1958C88.7183 42.2534 87.5171 45.2788 86.6306 48.3942C86.4636 48.9724 87.4528 50.4305 88.1401 50.6168C92.0392 51.6574 96.0089 52.441 99.9529 53.3018C105.631 54.5351 107.289 56.3465 107.089 62.0249C106.922 66.9003 106.222 71.7565 105.959 76.6384C105.901 77.679 106.402 79.2656 107.173 79.7152C108.387 80.4282 110.783 81.1412 111.38 80.5503C113.802 78.135 115.928 75.0839 115.177 71.4674C113.943 65.5642 112.17 59.7767 110.635 53.9377C109.704 50.3919 107.713 48.5163 103.781 48.1052C97.9424 47.4821 91.7501 46.8333 90.6517 38.6305ZM115.793 97.2771C125.589 91.5216 135.212 85.8689 145.033 80.1006C144.198 79.3876 143.652 78.8802 143.067 78.4305C138.699 75.0839 133.618 75.9639 128.878 76.7026C126.912 77.0109 125.21 79.5803 123.579 81.3018C121.375 83.6335 119.48 86.2543 117.232 88.5347C114.759 91.0655 114.643 93.8212 115.793 97.2771ZM126.636 94.7333C121.844 96.397 121.42 96.8403 122.294 99.7051C124.549 107.073 131.749 110.33 138.526 108.139C146.465 105.57 149.947 97.3798 146.318 90.0827C143.549 84.52 141.93 84.2823 137.601 88.5347C141.834 91.1041 143.318 94.1488 142.175 97.9451C141.147 101.343 137.974 103.611 134.447 103.463C129.835 103.264 127.78 100.971 126.636 94.7333ZM85.6992 67.3179C86.5664 64.8769 84.9798 64.2474 83.3289 64.029C77.0403 63.1811 70.7517 62.1791 64.431 61.7808C58.3993 61.4018 52.3163 61.6973 45.9056 61.6973C46.2397 63.8042 46.5159 65.5257 46.7985 67.3243C59.8767 67.3179 72.6595 67.3179 85.6992 67.3179ZM89.0972 70.3112C85.3845 69.444 83.8685 71.2747 83.1555 73.8377C82.571 75.951 82.1663 78.1736 82.1213 80.364C82.0378 84.2117 87.1252 87.4876 90.6196 85.9845C91.0436 85.8047 91.5317 85.278 91.6024 84.8476C92.6944 78.5654 93.7157 72.2768 94.7756 65.879C92.4246 65.4872 90.9279 65.2431 89.4826 65.0054C89.3477 66.8939 89.2321 68.4099 89.0972 70.3112ZM67.1289 97.2128C64.5852 96.8531 62.6003 96.6732 60.9687 99.7501C58.2452 104.876 50.8003 104.876 48.1346 99.7051C46.3938 96.3264 44.2869 97.0394 41.7175 97.3092C43.1243 105.319 49.2202 109.629 57.333 108.563C62.6517 107.863 67.4372 102.384 67.1289 97.2128ZM96.9275 10.2708C92.052 10.6048 87.4592 10.9196 82.8408 11.2343C83.5538 15.5959 86.1681 17.8441 89.9901 17.6257C94.0176 17.4009 96.5549 14.9021 96.9275 10.2708ZM134.505 100.373C137.036 100.335 139.502 98.1763 139.573 95.9281C139.657 93.3138 137.408 91.2068 134.582 91.2454C131.903 91.2839 129.771 93.2495 129.713 95.7161C129.674 97.7331 132.417 100.405 134.505 100.373ZM96.1695 7.31598C94.1333 2.948 90.96 2.83238 87.8639 3.33983C85.3523 3.75094 83.4831 5.36966 82.9435 8.34374C87.3629 7.99687 91.596 7.66927 96.1695 7.31598ZM107.912 82.8306C104.501 82.6764 101.083 82.5929 97.679 82.3488C95.1739 82.169 94.6728 83.5115 94.6536 86.0038C99.2913 85.6569 103.936 87.372 107.912 82.8306ZM50.6398 97.2C50.4535 97.5468 50.2672 97.9001 50.0873 98.247C51.6161 98.9536 53.1449 100.219 54.6673 100.2C56.1832 100.18 57.6863 98.8829 59.1959 98.1442C59.0481 97.8295 58.9004 97.5147 58.7526 97.2C56.0419 97.2 53.3376 97.2 50.6398 97.2ZM43.1243 32.541C46.5544 33.1449 46.8242 31.4747 46.4003 28.9953C45.2376 28.9953 44.242 28.9953 43.1243 28.9953C43.1243 30.2543 43.1243 31.282 43.1243 32.541Z" fill="url(#paint0_linear_622_6409)"/>
<path d="M0.330961 77.7816C-0.536211 75.559 0.382349 75.1287 2.13596 75.1351C11.6492 75.1736 21.1559 75.1287 30.6691 75.1993C31.44 75.2057 32.1979 75.9123 32.9687 76.2913C32.1979 76.7859 31.4271 77.7045 30.6499 77.7109C20.6099 77.8137 10.57 77.7816 0.330961 77.7816Z" fill="white"/>
<path d="M10.3711 69.8875C11.3924 69.5085 12.4138 68.8084 13.4479 68.7955C21.4452 68.7056 29.4425 68.6927 37.4397 68.8084C38.4482 68.8212 39.4503 69.7269 40.4523 70.2151C40.3367 70.517 40.2147 70.8189 40.099 71.1208C30.316 71.1208 20.5395 71.1208 10.7565 71.1208C10.628 70.7097 10.4996 70.2986 10.3711 69.8875Z" fill="white"/>
</g>
<defs>
<linearGradient id="paint0_linear_622_6409" x1="43.6217" y1="38.5886" x2="150.999" y2="79.4142" gradientUnits="userSpaceOnUse">
<stop stop-color="#FCF7EA"/>
<stop offset="1" stop-color="white" stop-opacity="0"/>
</linearGradient>
</defs>
</svg>
