<svg width="110" height="89" viewBox="0 0 110 89" fill="none" xmlns="http://www.w3.org/2000/svg">
<path d="M76.229 56.5485C81.8906 61.7286 87.2658 66.6345 93.2442 72.1011C91.2209 72.7105 90.1423 73.1432 89.0209 73.3565C83.5422 74.3986 78.0695 75.4407 72.5664 76.3488C70.9392 76.6169 69.8849 77.0496 69.2084 78.7926C68.2516 81.2669 65.3812 82.3151 63.1568 81.3278C62.5961 81.0779 62.2122 80.4197 62.0781 80.2796C64.1014 79.3411 66.4355 78.951 67.2948 77.6103C67.8494 76.751 66.2344 74.4961 65.2715 72.0462C69.2633 65.2816 73.7669 57.6454 78.2706 50.0154C78.1487 49.8509 78.0329 49.6863 77.911 49.5218C74.4922 51.1733 71.0184 52.7091 67.7092 54.5496C66.9535 54.9701 66.6122 56.39 66.3624 57.4139C65.369 61.5519 64.5341 65.7326 63.5408 69.8706C63.1934 71.3088 62.5718 72.68 62.072 74.0817C63.3518 74.9532 64.6377 75.8186 65.9175 76.6901C65.753 77.0131 65.5945 77.3421 65.43 77.6651C64.656 77.464 63.8455 77.3421 63.108 77.0374C61.7978 76.5011 60.5485 75.8064 59.2382 75.2762C53.8935 73.0944 53.5279 72.4667 54.7772 66.9087C55.8863 61.9663 56.8614 56.9751 58.2936 52.124C58.8055 50.3872 60.1767 48.5711 61.6637 47.5107C64.851 45.2497 68.3674 43.4519 72.3165 41.1361C68.861 38.2108 65.7652 35.5964 62.1573 32.5431C62.0111 34.1337 61.9075 34.8894 61.877 35.6573C61.6698 41.2031 61.1457 41.7394 55.4963 42.3062C53.0769 42.5499 50.6575 42.8424 48.2441 43.135C48.0979 43.1533 47.9821 43.3787 47.5616 43.7871C51.2669 44.5367 54.765 45.2497 58.2692 45.9627C58.2631 46.304 58.257 46.6453 58.257 46.9866C57.6232 47.1389 56.9589 47.4924 56.3556 47.4071C53.9484 47.078 51.5716 46.499 49.1583 46.237C47.9821 46.109 46.7571 46.4685 45.5504 46.6087C45.8734 47.8398 45.8917 49.2902 46.5804 50.2714C48.622 53.1722 50.9622 55.8598 53.083 58.7058C53.4547 59.2056 53.3633 60.0527 53.4791 60.7413C52.8392 60.4671 51.986 60.3635 51.5838 59.882C49.1278 56.9446 46.7754 53.9218 44.0574 50.5151C41.577 57.2006 39.3221 63.435 36.9209 69.6146C36.4822 70.7481 35.4583 71.6623 34.7087 72.68C34.8489 71.4002 34.7514 70.0412 35.1719 68.865C38.1337 60.589 41.2052 52.3495 44.2706 44.0065C43.7709 43.8785 43.4906 43.7261 43.2163 43.7505C39.8401 44.0491 37.9265 42.9278 37.7315 40.5205C37.5365 38.1803 39.316 36.7055 42.68 36.3399C46.3976 35.9376 50.1029 35.4867 54.1251 35.0235C54.1251 31.6168 54.0763 28.3929 54.1373 25.163C54.2043 21.6892 55.6365 20.0316 58.8421 18.9163C60.1462 18.4653 61.4931 17.6182 62.3767 16.5761C66.4233 11.7921 70.3176 6.88013 74.4922 1.73047C79.6235 5.86239 84.499 9.7932 89.3744 13.724C92.1412 15.9545 94.847 18.2581 97.6931 20.379C99.3081 21.5856 99.3507 22.5424 98.0709 24.0599C94.7313 28.0151 91.4403 32.0129 88.3444 36.157C87.4912 37.2967 87.0281 39.0031 87.022 40.4535C87.0098 43.3605 85.8336 45.1034 83.597 47.0414C80.879 49.3999 79.0568 52.7883 76.229 56.5485ZM96.8216 22.3413C91.4952 18.0448 86.4004 13.9373 81.1349 9.69569C77.3382 14.4066 73.7426 18.8554 69.7508 23.8039C75.2479 25.5896 77.0091 33.4938 84.7366 31.0317C84.0845 31.824 83.4324 32.6163 82.628 33.5913C83.5848 34.3592 84.5599 35.1393 85.7178 36.0717C89.4536 31.4462 93.0127 27.0461 96.8216 22.3413ZM75.1199 41.8186C70.6711 44.4331 66.7098 46.6514 62.8826 49.083C61.7856 49.7777 60.585 50.9539 60.2803 52.1301C58.8238 57.7125 57.6781 63.3741 56.38 68.9991C55.9534 70.8335 56.2398 72.3875 58.2509 72.7958C60.2864 73.2102 61.0908 71.7903 61.4748 70.0046C62.4864 65.3547 63.5956 60.7231 64.5646 56.067C64.9668 54.1412 65.8139 52.9163 67.7336 52.0875C72.5664 50.0032 77.2529 47.5838 82.043 45.402C84.2796 44.3843 85.3765 42.8607 84.9499 40.3804C84.5111 37.8573 81.4762 34.1703 79.6296 34.3836C76.4119 34.7493 73.2367 35.5049 69.9641 36.1144C71.6217 37.9487 73.1697 39.6612 75.1199 41.8186ZM60.2255 27.9419C60.4388 27.7774 60.6582 27.6129 60.8715 27.4544C64.6865 35.3343 71.0794 33.8473 78.3072 32.7686C73.1575 28.6062 68.8428 24.7729 64.1624 21.4576C60.5058 18.8676 56.1728 21.4394 56.0996 25.9065C56.0509 28.8439 56.2093 31.7996 55.9656 34.7188C55.8985 35.5354 54.8137 36.7969 54.0276 36.9371C50.243 37.6136 46.3854 37.8634 42.6008 38.5277C41.6074 38.7044 40.7786 39.838 39.8767 40.5327C40.9615 40.9532 42.0828 41.8125 43.1249 41.7211C47.7627 41.3189 52.3638 40.5388 57.0016 40.1122C59.1224 39.9172 59.7257 38.9604 59.7501 37.0041C59.7928 33.9753 60.0548 30.9586 60.2255 27.9419ZM75.6927 58.4194C73.0234 62.9109 70.2505 67.5669 67.5508 72.1011C68.7087 74.7094 70.4395 74.8618 72.8284 74.3316C78.0695 73.1615 83.3837 72.3326 89.0087 71.2966C84.3893 66.8295 80.1781 62.7585 75.6927 58.4194ZM68.4405 22.1646C72.2556 17.4354 75.8512 12.9866 79.5626 8.39151C77.8135 7.00202 76.3509 5.83192 74.7725 4.5765C70.9758 9.28128 67.3801 13.7484 63.687 18.3252C65.3142 19.6415 66.722 20.7751 68.4405 22.1646Z" fill="url(#paint0_linear_625_6537)"/>
<path d="M38.585 4.9484C37.6403 4.69853 36.6409 4.56446 35.7572 4.17442C21.649 -2.12096 5.98059 5.6919 2.57389 20.7448C-0.491533 34.2984 9.67371 48.0776 23.5199 49.1624C24.5498 49.2416 25.5737 49.4732 26.6036 49.6316C26.6341 49.9424 26.6706 50.2593 26.7011 50.5701C25.8967 50.8017 25.08 51.2588 24.2817 51.2344C11.3192 50.7956 0.654195 39.8808 0.0264846 26.4673C-0.582943 13.5352 9.39948 1.84032 22.2889 0.21924C27.1643 -0.390187 31.7898 0.267995 36.2509 2.23035C37.2077 2.65086 38.0608 3.29685 38.9628 3.83924C38.8348 4.21099 38.7068 4.58274 38.585 4.9484Z" fill="url(#paint1_linear_625_6537)"/>
<path d="M36.0556 56.6585C28.6693 57.8164 22.9285 60.8879 20.9479 68.585C20.0459 72.0892 20.5274 75.4289 22.1972 78.5979C25.7014 85.2711 33.5204 88.2512 40.352 85.4296C45.782 83.1808 48.8353 79.0123 49.5422 73.1923C50.2492 67.3966 46.9765 63.1915 42.9726 59.017C46.6718 58.9621 49.914 63.0148 51.1389 68.3107C52.8758 75.7945 49.1705 83.4977 42.2413 86.8191C35.1841 90.2014 26.7374 88.2146 21.99 82.0655C17.1755 75.8311 17.4376 66.9578 22.6055 61.0159C26.2804 56.7926 32.6367 54.4767 36.0556 56.6585Z" fill="url(#paint2_linear_625_6537)"/>
<path d="M83.6704 57.9321C84.8953 57.2434 86.041 56.2744 87.3574 55.9149C93.8783 54.1292 101.094 56.9448 104.964 62.6125C108.846 68.3045 108.7 76.221 104.598 81.718C97.4556 91.2982 82.7075 90.4877 76.9606 80.1701C76.5096 79.3595 76.4182 78.3479 76.5218 77.0376C82.9147 86.2217 90.563 89.9392 100.46 83.0831C105.384 79.6703 107.273 72.8082 104.945 67.2441C100.929 57.6517 93.5065 55.5431 83.8837 59.1083C83.8105 58.7121 83.7435 58.3221 83.6704 57.9321Z" fill="url(#paint3_linear_625_6537)"/>
<path d="M42.8017 13.7974C41.461 14.1874 40.3092 14.614 39.1208 14.8151C38.6698 14.8882 38.1335 14.4312 37.6399 14.2179C37.9324 13.7547 38.1518 13.2184 38.5358 12.8589C38.7978 12.609 39.2793 12.5602 39.6754 12.4993C41.8388 12.158 43.0516 11.1037 43.8378 8.85491C45.2029 4.9241 49.5968 3.07144 53.6069 4.22326C57.5072 5.34461 60.0851 9.41559 59.4269 13.4256C58.7626 17.46 55.1122 20.4767 51.029 20.367C47.5918 20.2695 45.5198 18.6423 42.8017 13.7974ZM45.2334 13.0965C46.6289 17.4722 49.8406 19.2457 53.4545 17.9537C56.7637 16.7775 58.1898 13.2733 56.6418 9.73858C52.9304 10.8295 49.2007 11.9264 45.2334 13.0965ZM45.3065 10.8051C48.9204 9.73858 52.0407 8.82444 55.3681 7.84326C51.419 4.53407 47.5248 5.60057 45.3065 10.8051Z" fill="url(#paint4_linear_625_6537)"/>
<path d="M10.0762 32.3846C12.9953 30.8915 15.9023 29.3862 18.8336 27.9175C20.3511 27.1557 22.1733 26.7169 21.9539 24.4194C21.9478 24.328 21.9905 24.1939 22.0575 24.1391C26.7318 20.2753 24.1235 14.9794 24.7634 10.3233C24.9401 9.02525 24.9889 7.71498 25.0986 6.41081C25.4459 6.39252 25.7994 6.37424 26.1468 6.35596C26.3235 7.19697 26.6282 8.03188 26.6526 8.87899C26.7196 11.3106 26.6587 13.7483 26.677 16.1799C26.7013 18.8188 26.1102 21.5002 28.8587 23.5601C29.5657 24.0903 29.4986 26.9546 28.7368 27.8261C27.8471 28.8438 25.4825 29.5995 24.3368 29.112C22.606 28.3807 21.509 28.8195 20.1683 29.5081C17.7306 30.7452 15.3051 32.0068 12.8125 33.1342C12.1056 33.4511 11.2097 33.3475 10.3992 33.4328C10.2895 33.0855 10.1859 32.732 10.0762 32.3846ZM25.775 23.0055C24.8853 24.1391 23.8614 24.8826 23.9041 25.5529C23.9528 26.2599 25.0315 26.8937 25.6592 27.5579C26.3235 26.9302 27.4388 26.3513 27.5241 25.6565C27.6033 24.9862 26.6099 24.1878 25.775 23.0055Z" fill="url(#paint5_linear_625_6537)"/>
<path d="M40.4131 78.5917C40.663 77.3241 40.6142 76.5928 40.9372 76.0991C42.3998 73.893 42.5887 71.6137 41.7782 69.1334C41.6197 68.6458 41.9976 67.9876 42.1256 67.4087C42.5887 67.6951 43.2347 67.878 43.4907 68.2924C45.3433 71.2786 44.1306 76.1966 40.4131 78.5917Z" fill="url(#paint6_linear_625_6537)"/>
<path d="M96.8462 78.2197C96.8035 77.5859 96.5353 76.9094 96.7669 76.5621C98.3758 74.1304 98.839 71.6257 97.7054 68.8589C97.5592 68.4993 97.998 67.9021 98.1625 67.4146C98.583 67.5974 99.1315 67.6705 99.3936 67.9874C101.563 70.6019 100.198 76.4524 96.8462 78.2197Z" fill="url(#paint7_linear_625_6537)"/>
<path d="M100.728 8.56238C96.5535 8.56238 92.8847 8.56238 88.8259 8.56238C90.9041 6.55127 98.5768 6.54517 100.728 8.56238Z" fill="url(#paint8_linear_625_6537)"/>
<path d="M106.116 47.7852C102.715 47.7852 99.8873 47.7852 96.8889 47.7852C98.2601 45.5608 103.763 45.4207 106.116 47.7852Z" fill="url(#paint9_linear_625_6537)"/>
<path d="M109.529 16.4849C107.377 18.4411 102.904 18.3436 100.667 16.4849C103.958 16.4849 106.743 16.4849 109.529 16.4849Z" fill="url(#paint10_linear_625_6537)"/>
<path d="M98.0955 32.1289C100.856 32.1289 102.898 32.1289 105.287 32.1289C103.416 34.2192 100.661 34.2924 98.0955 32.1289Z" fill="url(#paint11_linear_625_6537)"/>
<path d="M78.9348 63.5811C78.0694 66.0371 77.399 68.0421 76.6373 70.0105C76.5519 70.2299 75.8023 70.4554 75.65 70.3274C75.3209 70.0593 74.9126 69.4803 75.004 69.1695C75.5586 67.3473 76.2046 65.5495 76.9298 63.7883C77.0578 63.4775 77.7281 63.2642 78.1608 63.2398C78.5082 63.2154 78.8677 63.5506 78.9348 63.5811Z" fill="url(#paint12_linear_625_6537)"/>
<defs>
<linearGradient id="paint0_linear_625_6537" x1="34.3669" y1="18.0573" x2="111.834" y2="71.539" gradientUnits="userSpaceOnUse">
<stop stop-color="white"/>
<stop offset="1" stop-color="white" stop-opacity="0"/>
</linearGradient>
<linearGradient id="paint1_linear_625_6537" x1="-0.207248" y1="10.4609" x2="48.4009" y2="42.2158" gradientUnits="userSpaceOnUse">
<stop stop-color="white"/>
<stop offset="1" stop-color="white" stop-opacity="0"/>
</linearGradient>
<linearGradient id="paint2_linear_625_6537" x1="18.3715" y1="62.4862" x2="51.8506" y2="91.5844" gradientUnits="userSpaceOnUse">
<stop stop-color="white"/>
<stop offset="1" stop-color="white" stop-opacity="0"/>
</linearGradient>
<linearGradient id="paint3_linear_625_6537" x1="76.3167" y1="62.1296" x2="109.84" y2="89.3981" gradientUnits="userSpaceOnUse">
<stop stop-color="white"/>
<stop offset="1" stop-color="white" stop-opacity="0"/>
</linearGradient>
<linearGradient id="paint4_linear_625_6537" x1="37.5235" y1="7.25098" x2="54.4548" y2="26.5648" gradientUnits="userSpaceOnUse">
<stop stop-color="white"/>
<stop offset="1" stop-color="white" stop-opacity="0"/>
</linearGradient>
<linearGradient id="paint5_linear_625_6537" x1="9.97365" y1="11.8843" x2="34.9443" y2="27.1543" gradientUnits="userSpaceOnUse">
<stop stop-color="white"/>
<stop offset="1" stop-color="white" stop-opacity="0"/>
</linearGradient>
<linearGradient id="paint6_linear_625_6537" x1="40.3922" y1="69.692" x2="46.808" y2="71.6306" gradientUnits="userSpaceOnUse">
<stop stop-color="white"/>
<stop offset="1" stop-color="white" stop-opacity="0"/>
</linearGradient>
<linearGradient id="paint7_linear_625_6537" x1="96.6538" y1="69.6207" x2="102.809" y2="71.4648" gradientUnits="userSpaceOnUse">
<stop stop-color="white"/>
<stop offset="1" stop-color="white" stop-opacity="0"/>
</linearGradient>
<linearGradient id="paint8_linear_625_6537" x1="88.7626" y1="7.36019" x2="89.2152" y2="10.4234" gradientUnits="userSpaceOnUse">
<stop stop-color="white"/>
<stop offset="1" stop-color="white" stop-opacity="0"/>
</linearGradient>
<linearGradient id="paint9_linear_625_6537" x1="96.8398" y1="46.4154" x2="97.5795" y2="49.8213" gradientUnits="userSpaceOnUse">
<stop stop-color="white"/>
<stop offset="1" stop-color="white" stop-opacity="0"/>
</linearGradient>
<linearGradient id="paint10_linear_625_6537" x1="100.62" y1="16.777" x2="101.159" y2="19.6406" gradientUnits="userSpaceOnUse">
<stop stop-color="white"/>
<stop offset="1" stop-color="white" stop-opacity="0"/>
</linearGradient>
<linearGradient id="paint11_linear_625_6537" x1="98.0572" y1="32.4546" x2="98.8574" y2="35.5535" gradientUnits="userSpaceOnUse">
<stop stop-color="white"/>
<stop offset="1" stop-color="white" stop-opacity="0"/>
</linearGradient>
<linearGradient id="paint12_linear_625_6537" x1="74.97" y1="64.6935" x2="80.6957" y2="67.4157" gradientUnits="userSpaceOnUse">
<stop stop-color="white"/>
<stop offset="1" stop-color="white" stop-opacity="0"/>
</linearGradient>
</defs>
</svg>
