<svg width="279" height="110" viewBox="0 0 279 110" fill="none" xmlns="http://www.w3.org/2000/svg">
<g clip-path="url(#clip0_625_6555)">
<path d="M185.97 62.1899H155.551L140.242 83.3103H158.819L170.572 65.5832L182.494 83.3103H201.236L185.97 62.1899Z" fill="#F0BA1B"/>
<path d="M184.575 47.2544L199.921 26.134H182.329L170.986 42.6335L159.477 26.134H141.144L156.133 47.2544H184.575Z" fill="#F0BA1B"/>
<path d="M221.293 62.1899H205.017V83.3103H221.293V62.1899Z" fill="#333333"/>
<path d="M221.293 26.134H205.017V47.2544H221.293V26.134Z" fill="#333333"/>
<path d="M227.456 26.7314V39.5522H245.132V47.2543H261.409V39.5522H279V26.7314H227.456Z" fill="#333333"/>
<path d="M261.408 62.1899H245.132V83.9078H261.408V62.1899Z" fill="#333333"/>
<path d="M164.471 53.0601H156.095V55.3942H164.471V53.0601Z" fill="#333333"/>
<path d="M180.612 53.0601H172.236V55.3942H180.612V53.0601Z" fill="#333333"/>
<path d="M196.752 53.0601H188.376V55.3942H196.752V53.0601Z" fill="#333333"/>
<path d="M212.893 53.0601H204.517V55.3942H212.893V53.0601Z" fill="#333333"/>
<path d="M229.033 53.0601H220.657V55.3942H229.033V53.0601Z" fill="#333333"/>
<path d="M245.174 53.0601H236.798V55.3942H245.174V53.0601Z" fill="#333333"/>
<path d="M261.315 53.0601H252.939V55.3942H261.315V53.0601Z" fill="#333333"/>
<path d="M130.805 45.5666C130.806 47.709 131.342 48.7596 132.661 49.2066C133.992 49.6588 135.063 49.1877 136.38 47.5637V27.898C135.745 27.3229 135.193 26.599 134.462 26.1975C118.823 17.6211 103.16 9.08853 87.5148 0.522438C86.1945 -0.199713 85.0368 -0.161886 83.7209 0.559406C68.079 9.12894 52.4225 17.6701 36.759 26.1992C35.4777 26.8956 34.8582 27.8593 34.8988 29.3165C34.9438 31.0084 34.9084 32.7029 34.9084 34.5237H33.255C24.103 34.5237 14.9518 34.522 5.79977 34.5237C4.73212 34.5237 3.66101 34.485 2.59682 34.5495C1.10783 34.6372 0.0721881 35.7084 0.004703 37.1235C-0.0645125 38.6159 0.90364 39.8049 2.4134 40.0233C2.8685 40.0886 3.34003 40.0619 3.80464 40.0619C13.6064 40.0637 23.4091 40.0637 33.2108 40.0637H34.7898V50.0345C29.6082 50.0345 24.5459 50.0027 19.4854 50.0698C18.6635 50.0792 17.7308 50.3672 17.0585 50.8289C16.0869 51.4969 15.9537 52.6377 16.3283 53.7115C16.7722 54.9881 17.7966 55.5684 19.1359 55.571C23.8754 55.577 28.6141 55.5745 33.3519 55.5745H34.7881V69.9797C27.331 69.9797 19.9916 69.9779 12.6538 69.9797C12.1425 69.9814 11.626 69.9556 11.1233 70.0192C9.82206 70.1834 8.82882 71.24 8.7224 72.5166C8.61944 73.7426 9.34793 74.9135 10.567 75.2986C11.1268 75.4757 11.7506 75.5076 12.3458 75.5093C19.3608 75.5239 26.375 75.5187 33.3899 75.5187H34.9092C34.9092 77.3018 34.9724 78.8707 34.8928 80.4337C34.8071 82.1161 35.5149 83.1598 37.0013 83.967C52.5549 92.4119 68.0894 100.889 83.6075 109.4C85.0213 110.174 86.2239 110.21 87.6419 109.431C103.123 100.951 118.631 92.5211 134.104 84.0264C134.986 83.5423 135.628 82.6268 136.381 81.9106V68.0617C136.287 67.9052 136.196 67.7453 136.1 67.5888C135.283 66.2709 134.171 65.7748 132.822 66.1299C131.618 66.4445 130.826 67.5028 130.815 68.9532C130.789 72.1375 130.844 75.3227 130.767 78.5053C130.755 79.0117 130.362 79.7373 129.929 79.9754C116.413 87.4024 102.869 94.783 89.3291 102.165C89.0972 102.293 88.8454 102.381 88.4336 102.56V101.071C88.4336 86.7181 88.4448 72.3679 88.4094 58.0152C88.4059 57.0084 88.6957 56.4608 89.6059 55.9828C93.2129 54.0863 96.7697 52.0969 100.35 50.1471C100.784 49.9124 101.238 49.7121 101.886 49.3949C101.886 52.348 101.886 55.099 101.887 57.8509C101.887 58.9118 101.826 59.9796 101.915 61.0336C102.1 63.2146 104.102 64.3735 106.052 63.3556C109.499 61.5528 112.895 59.6529 116.301 57.7727C117.386 57.1752 117.753 56.1943 117.747 54.983C117.723 50.6002 117.719 46.2149 117.766 41.8321C117.772 41.3292 118.017 40.5795 118.394 40.3671C122.414 38.0898 126.484 35.8993 130.806 33.5394V45.5666H130.805ZM82.854 101.705C82.854 101.931 82.828 102.158 82.8072 102.525C82.3669 102.323 81.9931 102.177 81.6444 101.987C68.2694 94.6944 54.8987 87.3955 41.5202 80.1087C40.8817 79.7605 40.456 79.4502 40.4569 78.5715C40.4941 63.9015 40.4828 49.2307 40.4854 34.5607C40.4854 34.3002 40.5191 34.0414 40.5468 33.6374C40.9967 33.8549 41.3238 33.995 41.6335 34.1644C55.0077 41.4598 68.3758 48.7622 81.7569 56.0438C82.4612 56.4256 82.8825 56.7755 82.8808 57.6928C82.8462 72.3636 82.8574 87.0336 82.854 101.705ZM86.2568 51.4866C85.9306 51.6619 85.3336 51.643 85.0005 51.4625C71.2595 43.9856 57.5323 36.4787 43.8043 28.9752C43.7654 28.9529 43.7368 28.9133 43.6131 28.7964C47.2071 26.8311 50.8349 24.9905 54.3034 22.8885C56.071 21.8182 57.3809 21.8852 59.1857 22.8868C71.8945 29.9381 84.6778 36.8587 97.4351 43.8223C97.8694 44.0587 98.289 44.3226 98.8471 44.6519C94.5548 46.9929 90.4184 49.2651 86.2568 51.4866ZM105.101 41.1718C104.692 41.3472 103.977 41.0583 103.501 40.7996C92.474 34.804 81.4601 28.7852 70.4445 22.769C67.8973 21.3789 65.3485 19.987 62.566 18.467C64.1052 17.6245 65.409 16.8774 66.7536 16.2077C67.0062 16.0814 67.4708 16.1777 67.7494 16.329C81.4541 23.7989 95.1466 31.2869 108.842 38.7733C108.881 38.7939 108.909 38.8352 109.117 39.0355C107.699 39.8109 106.445 40.595 105.101 41.1718ZM112.162 49.9159C112.162 54.162 111.84 54.5961 107.463 56.0808C107.463 52.9601 107.445 49.97 107.485 46.9791C107.49 46.6438 107.741 46.171 108.022 45.9999C109.281 45.2442 110.592 44.5728 112.162 43.7217V49.9159ZM115.727 35.386C115.293 35.613 114.474 35.4608 113.991 35.1995C105.025 30.3499 96.0862 25.459 87.1419 20.575C82.4707 18.0252 77.7969 15.4761 73.0037 12.8601C73.3706 12.6168 73.6102 12.4319 73.8724 12.2883C77.4889 10.3085 81.0959 8.31308 84.7401 6.3839C85.1839 6.1492 85.9513 6.06409 86.3623 6.28675C100.044 13.706 113.7 21.1717 127.36 28.6322C127.438 28.6752 127.496 28.7551 127.68 28.9262C123.636 31.1279 119.705 33.3055 115.727 35.386Z" fill="#333333"/>
<path d="M136.38 58.6447C136.185 58.8837 135.993 59.1235 135.797 59.3608C134.709 60.6736 132.825 60.8034 131.649 59.6488C130.489 58.5106 130.544 56.6923 131.771 55.622C133.002 54.5473 134.906 54.7932 135.885 56.1627C136.07 56.4223 136.216 56.7086 136.38 56.9829C136.38 57.5365 136.38 58.091 136.38 58.6447Z" fill="#333333"/>
</g>
<defs>
<clipPath id="clip0_625_6555">
<rect width="279" height="110" fill="white"/>
</clipPath>
</defs>
</svg>
