<svg width="104" height="97" viewBox="0 0 104 97" fill="none" xmlns="http://www.w3.org/2000/svg">
<path d="M104 74.2264C103.792 75.1816 103.608 76.1411 103.377 77.09C100.8 87.6841 90.6921 94.7278 79.843 93.3583C73.5194 92.5595 68.4771 89.4846 64.7562 84.2943C64.5741 84.0407 64.3941 83.7829 64.1654 83.4574C61.1285 85.2051 58.1213 86.9338 55.1163 88.6646C51.0968 90.9809 47.0689 93.2802 43.0706 95.6281C42.2065 96.1353 41.5161 96.1205 40.6436 95.6154C27.5306 88.0328 14.407 80.4755 1.26642 72.9415C0.360025 72.4216 -0.00210851 71.8235 9.22991e-06 70.769C0.0317753 55.6608 0.033893 40.5526 9.22991e-06 25.4466C-0.00210851 24.3519 0.366378 23.7348 1.30877 23.1938C14.3879 15.6936 27.448 8.15956 40.5102 0.631885C40.8342 0.445912 41.1328 0.211333 41.442 0C41.7237 0 42.0053 0 42.287 0C43.9028 0.965791 45.506 1.95483 47.1366 2.89526C58.8795 9.66636 70.6202 16.4396 82.3843 23.1747C83.3732 23.7411 83.7311 24.3962 83.7248 25.5227C83.6824 33.3885 83.7015 41.2543 83.7015 49.1222C83.7015 49.5406 83.7015 49.9612 83.7015 50.4367C84.8408 50.6311 85.9463 50.7706 87.0285 51.0094C96.0098 53.0001 102.494 60.0206 103.799 69.1248C103.822 69.2854 103.93 69.4355 103.998 69.5898C104 71.1346 104 72.6794 104 74.2264ZM40.5462 92.5701C40.5674 92.1178 40.5928 91.8156 40.5928 91.5134C40.5949 77.5993 40.5865 63.6851 40.614 49.771C40.6161 49.0207 40.3366 48.6594 39.7309 48.3128C27.6323 41.3599 15.5442 34.3902 3.45192 27.4289C3.19356 27.2788 2.9119 27.1668 2.58153 27.0104C2.56883 27.2831 2.55188 27.4542 2.55188 27.6254C2.54977 41.715 2.55612 55.8066 2.53282 69.8962C2.53071 70.583 2.83143 70.8704 3.36298 71.1769C13.418 76.9547 23.4624 82.7494 33.5111 88.5378C35.8152 89.8608 38.1235 91.1816 40.5462 92.5701ZM81.1623 26.9808C80.7769 27.1732 80.5291 27.2831 80.294 27.4183C68.1467 34.4155 56.0015 41.4212 43.8435 48.3994C43.2633 48.7312 43.1129 49.101 43.115 49.7266C43.132 63.6767 43.1277 77.6246 43.1299 91.5747C43.1299 91.8642 43.1722 92.1537 43.1998 92.5024C43.4285 92.401 43.5598 92.3566 43.6784 92.289C49.8622 88.7302 56.0354 85.1544 62.2382 81.6315C62.9752 81.2131 62.7867 80.8263 62.5559 80.2768C60.7071 75.8558 60.3598 71.3058 61.5542 66.6734C63.8731 57.6875 71.4334 51.5694 80.0293 50.6543C80.9484 50.5571 81.1856 50.3183 81.1814 49.4138C81.1433 42.2813 81.1602 35.1489 81.1602 28.0164C81.1623 27.7142 81.1623 27.4141 81.1623 26.9808ZM79.8218 24.7259C79.3538 24.4385 79.0636 24.2483 78.765 24.0771C73.3754 20.9705 67.9773 17.8766 62.6025 14.7447C61.9777 14.3812 61.5267 14.3812 60.8977 14.7447C48.8202 21.7271 36.7301 28.6842 24.642 35.6476C24.3879 35.7955 24.1507 35.9731 23.8436 36.1781C24.1676 36.3809 24.4006 36.5352 24.642 36.6747C30.0931 39.813 35.5526 42.9365 40.9846 46.1065C41.6602 46.5017 42.1261 46.4657 42.7826 46.0853C50.3514 41.6917 57.9392 37.3319 65.5228 32.9637C70.239 30.2459 74.9574 27.5282 79.8218 24.7259ZM3.95171 24.709C4.30749 24.933 4.55738 25.1042 4.81998 25.2564C9.96397 28.2235 15.1185 31.1716 20.2435 34.1704C20.955 34.5867 21.4569 34.5466 22.1473 34.1471C34.1041 27.2323 46.0756 20.3429 58.043 13.4471C58.3712 13.2569 58.6889 13.0456 59.0976 12.7899C58.7122 12.5532 58.4263 12.3672 58.1298 12.196C53.0451 9.26271 47.9477 6.35266 42.8863 3.38132C42.1028 2.92062 41.5479 2.97768 40.7919 3.41514C28.8711 10.3088 16.9313 17.175 4.99787 24.0497C4.67174 24.2378 4.35831 24.4512 3.95171 24.709ZM82.3906 53.0868C71.8676 53.1248 63.4347 61.5739 63.4305 72.0835C63.4263 82.5001 72.0095 90.9576 82.5558 90.928C92.9878 90.8984 101.539 82.3247 101.465 71.9736C101.389 61.4534 92.9009 53.0487 82.3906 53.0868Z" fill="url(#paint0_linear_625_6580)"/>
<path d="M81.6579 55.815C89.4575 55.7876 95.0695 61.2738 94.8747 68.0301C94.809 70.3294 94.0699 72.4321 92.7612 74.3257C89.7836 78.6284 86.804 82.929 83.8137 87.2212C82.8608 88.5885 82.0115 88.5695 81.0437 87.1768C78.1615 83.0241 75.2962 78.8588 72.4012 74.7124C69.6503 70.7732 69.1145 66.5972 71.372 62.3199C73.6782 57.9537 77.5664 56.0031 81.6579 55.815ZM82.4563 84.6916C85.3682 80.4712 88.1996 76.4538 90.9336 72.373C92.3059 70.3252 92.6172 68.0026 92.0327 65.6103C90.9378 61.1343 86.9819 58.2411 82.0391 58.4081C78.3182 58.5328 75.383 60.2213 73.6422 63.5287C71.9248 66.7917 72.289 70.0293 74.3919 73.0619C76.6515 76.3228 78.9133 79.5836 81.175 82.8445C81.5689 83.413 81.9649 83.9815 82.4563 84.6916Z" fill="url(#paint1_linear_625_6580)"/>
<path d="M82.4542 74.4737C78.6783 74.4864 75.6118 71.4749 75.5483 67.6942C75.4848 63.9557 78.6614 60.7561 82.4331 60.7561C86.2153 60.7561 89.3581 63.9029 89.3432 67.6751C89.3305 71.4094 86.2386 74.461 82.4542 74.4737ZM86.7173 67.6836C86.7257 65.2723 84.8854 63.383 82.4902 63.347C80.1163 63.3132 78.187 65.2089 78.1743 67.5927C78.1616 70.004 80.0125 71.8997 82.3992 71.9208C84.7965 71.9398 86.7088 70.0653 86.7173 67.6836Z" fill="url(#paint2_linear_625_6580)"/>
<defs>
<linearGradient id="paint0_linear_625_6580" x1="89.5" y1="-13.5" x2="-3.5" y2="113" gradientUnits="userSpaceOnUse">
<stop stop-color="white" stop-opacity="0.27"/>
<stop offset="1" stop-color="#F1BC23"/>
</linearGradient>
<linearGradient id="paint1_linear_625_6580" x1="91.4056" y1="51.2561" x2="58.5229" y2="82.9888" gradientUnits="userSpaceOnUse">
<stop stop-color="white" stop-opacity="0.27"/>
<stop offset="1" stop-color="#F1BC23"/>
</linearGradient>
<linearGradient id="paint2_linear_625_6580" x1="87.4198" y1="58.8271" x2="73.8677" y2="75.9402" gradientUnits="userSpaceOnUse">
<stop stop-color="white" stop-opacity="0.27"/>
<stop offset="1" stop-color="#F1BC23"/>
</linearGradient>
</defs>
</svg>
