<svg width="158" height="141" viewBox="0 0 158 141" fill="none" xmlns="http://www.w3.org/2000/svg">
<path d="M76.6401 57.7157C66.66 51.7401 57.0448 45.9863 46.4045 39.6164C49.8205 37.6442 52.6784 36.3452 55.1173 34.5044C58.9527 31.6044 62.777 31.5269 67.3143 32.6702C78.9494 35.6171 90.6854 38.1873 102.438 40.6584C104.26 41.0431 106.744 40.6945 108.268 39.7004C114.2 35.8099 120.614 34.1234 127.611 34.1974C136.367 34.2926 138.77 38.2433 134.473 45.7854C131.292 51.3602 127.468 56.4574 121.332 59.0775C117.837 60.5731 116.357 63.1987 115.334 66.671C111.811 78.6383 108.115 90.5591 104.271 102.435C103.726 104.121 102.266 105.805 100.774 106.813C97.3354 109.141 93.6149 111.052 89.1214 113.647C88.9189 101.25 88.7302 89.9808 88.5352 78.0782C84.7212 80.2802 81.0782 81.6897 78.408 84.1619C76.5297 85.8993 75.5009 88.9665 74.9191 91.6206C73.5538 97.894 68.5432 99.734 63.2384 102.266C63.0679 100.797 62.8184 99.7007 62.8442 98.6002C62.9256 94.8392 62.9878 91.0731 63.2788 87.3217C63.7906 80.7575 61.2624 76.1523 55.1713 73.3921C51.5348 71.745 48.0782 69.7166 44.5425 67.8481C42.5475 66.796 42.626 65.7304 44.4708 64.5428C48.4655 61.9753 52.419 59.4071 57.5199 61.4984C58.364 61.8436 59.4355 61.6494 60.2883 61.9814C66.4778 64.3747 71.4345 61.8476 76.6401 57.7157ZM81.2679 69.3364C81.6749 69.5749 82.0854 69.8194 82.4925 70.0579C81.4895 73.2407 80.4805 76.4271 79.2268 80.3915C80.9409 79.4018 81.9327 78.8293 82.9244 78.2567C95.9824 70.7176 109.027 63.1699 122.096 55.6493C127.554 52.5062 130.888 47.5935 133.306 42.0264C134.734 38.7452 133.975 37.5018 130.302 37.092C124.385 36.4275 118.567 36.8558 113.232 39.944C100.588 47.2523 87.9367 54.5484 75.296 61.8629C74.4451 62.3542 73.6622 62.9775 72.476 63.793C75.3779 64.4929 77.7627 65.075 81.0956 65.8852C79.3307 67.296 78.4526 68.1784 77.4189 68.7916C73.5756 71.084 69.6342 73.2207 65.8359 75.577C64.9598 76.1236 64.4969 77.3295 63.8451 78.2364C64.8867 78.0187 66.0599 78.0433 66.9485 77.5466C71.767 74.8789 76.505 72.0863 81.2679 69.3364ZM101.77 43.5741C99.8809 43.0161 98.9167 42.675 97.9214 42.4497C87.475 40.049 76.9035 38.0961 66.6168 35.138C60.3072 33.3283 56.5758 36.7478 51.6475 39.7482C60.8204 45.2023 69.4668 50.3808 78.1758 55.4415C78.9107 55.8661 80.2926 55.8845 81.0343 55.4726C87.7086 51.7498 94.3077 47.8827 101.77 43.5741ZM113.554 63.6171C106.257 67.8302 99.9791 71.5609 93.5932 75.0763C91.6278 76.1539 91.1278 77.4792 91.181 79.5789C91.3924 88.2724 91.4365 96.9727 91.5593 105.668C91.5717 106.665 91.7199 107.657 91.847 109.037C93.8917 107.856 95.444 106.756 97.154 106.013C100.331 104.645 101.876 102.316 102.768 98.9845C104.495 92.5025 106.695 86.1473 108.672 79.7325C110.214 74.7121 111.717 69.6813 113.554 63.6171ZM73.9127 67.8365C73.8754 67.5316 73.8381 67.2266 73.8043 66.9278C67.591 65.8787 61.345 64.971 55.1667 63.714C52.0601 63.0834 49.8179 64.035 47.4102 66.3965C52.215 68.9362 56.7221 71.3703 61.3031 73.6638C61.992 74.0088 63.1789 73.9439 63.869 73.57C67.2656 71.7477 70.5763 69.7628 73.9127 67.8365ZM65.4771 97.9861C70.2261 96.2727 70.3351 96.1364 71.8815 91.9296C73.9563 86.2913 76.054 80.6643 78.1385 75.0285C74.1178 76.4765 70.7557 78.3442 67.4916 80.3675C66.8201 80.7878 66.1546 81.7842 66.1089 82.5533C65.8077 87.5595 65.6748 92.5745 65.4771 97.9861Z" fill="url(#paint0_linear_625_6525)"/>
<path d="M12.2358 77.8726C23.2919 71.4894 34.3419 65.1097 45.398 58.7264C45.6526 58.7998 45.9037 58.8671 46.1583 58.9405C45.7236 59.771 45.5071 60.9653 44.8188 61.3708C35.0086 67.1409 25.1514 72.8156 15.2704 78.4632C14.5725 78.8662 13.6166 78.8222 12.7774 78.9802C12.5968 78.611 12.4163 78.2418 12.2358 77.8726Z" fill="url(#paint1_linear_625_6525)"/>
<path d="M21.9344 103.324C32.8619 97.0146 43.7895 90.7056 54.717 84.3966C54.97 84.4954 55.2204 84.6039 55.4733 84.7027C54.972 85.5309 54.6747 86.6984 53.9436 87.1286C44.3231 92.7891 34.6496 98.3578 24.9513 103.884C24.2132 104.302 23.171 104.193 22.2703 104.33C22.1583 103.994 22.0464 103.659 21.9344 103.324Z" fill="url(#paint2_linear_625_6525)"/>
<path d="M84.6192 109.129C83.9091 109.751 83.2768 110.508 82.4749 110.971C73.022 116.469 63.5585 121.949 54.0526 127.356C53.2838 127.791 52.2066 127.679 51.2717 127.827C51.7658 126.929 52.0336 125.64 52.7953 125.192C62.2128 119.633 71.6904 114.177 81.1928 108.764C82.0289 108.29 83.1593 108.339 84.1519 108.15C84.3173 108.479 84.4634 108.802 84.6192 109.129Z" fill="url(#paint3_linear_625_6525)"/>
<path d="M43.47 81.217C41.3458 82.4434 39.2578 83.7469 37.075 84.8438C36.5247 85.1207 35.6507 84.752 34.9244 84.6816C35.1976 84.0096 35.2712 83.0202 35.7661 82.7182C40.0596 80.1169 44.4123 77.6039 48.8119 75.1862C49.2781 74.9334 50.1642 75.4502 50.855 75.6146C50.5167 76.2588 50.3489 77.1557 49.8217 77.5009C47.7707 78.8401 45.6014 80.0028 43.4771 81.2292C43.4736 81.2231 43.47 81.217 43.47 81.217Z" fill="url(#paint4_linear_625_6525)"/>
<path d="M75.0476 103.578C69.6175 106.713 64.4812 109.679 59.3388 112.648C59.0493 112.415 58.766 112.178 58.4765 111.946C59.0358 111.133 59.4247 110.068 60.1878 109.537C68.1061 104.011 72.755 102.053 75.0476 103.578Z" fill="url(#paint5_linear_625_6525)"/>
<path d="M51.2144 47.8345C45.9251 50.8883 40.6358 53.942 34.9976 57.1973C35.7132 54.0823 47.4982 46.9681 51.2144 47.8345Z" fill="url(#paint6_linear_625_6525)"/>
<path d="M61.1027 94.0145C60.2864 97.563 48.4242 104.657 44.9837 103.9C49.7323 100.122 55.0629 97.2812 61.1027 94.0145Z" fill="url(#paint7_linear_625_6525)"/>
<path d="M53.542 116.264C51.8646 117.232 50.2306 118.29 48.4806 119.104C48.0737 119.29 47.2818 118.654 46.6677 118.396C47.9106 117.311 49.0545 116.055 50.4413 115.205C51.1653 114.763 52.3257 115.048 53.2891 115.006C53.3839 115.424 53.463 115.844 53.542 116.264Z" fill="url(#paint8_linear_625_6525)"/>
<path d="M29.8841 60.117C27.7782 61.3329 25.6662 62.5523 23.3154 63.9095C23.6997 61.0266 26.1571 59.3875 29.8841 60.117Z" fill="url(#paint9_linear_625_6525)"/>
<path d="M120.79 44.8619C121.202 46.6076 121.572 48.1815 121.942 49.7555C120.734 48.6245 119.182 47.6757 118.406 46.3035C117.569 44.8114 117.452 42.9119 117.022 41.1926C118.267 42.4006 119.508 43.6182 120.79 44.8619Z" fill="url(#paint10_linear_625_6525)"/>
<defs>
<linearGradient id="paint0_linear_625_6525" x1="73.1609" y1="23.9595" x2="116.021" y2="98.1957" gradientUnits="userSpaceOnUse">
<stop stop-color="white"/>
<stop offset="1" stop-color="white" stop-opacity="0"/>
</linearGradient>
<linearGradient id="paint1_linear_625_6525" x1="29.0189" y1="68.1829" x2="30.0528" y2="69.9736" gradientUnits="userSpaceOnUse">
<stop stop-color="white"/>
<stop offset="1" stop-color="white" stop-opacity="0"/>
</linearGradient>
<linearGradient id="paint2_linear_625_6525" x1="38.4512" y1="93.7877" x2="39.4736" y2="95.5584" gradientUnits="userSpaceOnUse">
<stop stop-color="white"/>
<stop offset="1" stop-color="white" stop-opacity="0"/>
</linearGradient>
<linearGradient id="paint3_linear_625_6525" x1="67.0632" y1="116.865" x2="68.3785" y2="119.143" gradientUnits="userSpaceOnUse">
<stop stop-color="white"/>
<stop offset="1" stop-color="white" stop-opacity="0"/>
</linearGradient>
<linearGradient id="paint4_linear_625_6525" x1="42.1819" y1="78.9222" x2="43.5159" y2="81.2327" gradientUnits="userSpaceOnUse">
<stop stop-color="white"/>
<stop offset="1" stop-color="white" stop-opacity="0"/>
</linearGradient>
<linearGradient id="paint5_linear_625_6525" x1="65.7152" y1="105.949" x2="67.0218" y2="108.212" gradientUnits="userSpaceOnUse">
<stop stop-color="white"/>
<stop offset="1" stop-color="white" stop-opacity="0"/>
</linearGradient>
<linearGradient id="paint6_linear_625_6525" x1="42.1775" y1="50.9077" x2="43.106" y2="52.5159" gradientUnits="userSpaceOnUse">
<stop stop-color="white"/>
<stop offset="1" stop-color="white" stop-opacity="0"/>
</linearGradient>
<linearGradient id="paint7_linear_625_6525" x1="52.8351" y1="98.5969" x2="53.993" y2="100.602" gradientUnits="userSpaceOnUse">
<stop stop-color="white"/>
<stop offset="1" stop-color="white" stop-opacity="0"/>
</linearGradient>
<linearGradient id="paint8_linear_625_6525" x1="49.4463" y1="115.779" x2="50.6944" y2="117.941" gradientUnits="userSpaceOnUse">
<stop stop-color="white"/>
<stop offset="1" stop-color="white" stop-opacity="0"/>
</linearGradient>
<linearGradient id="paint9_linear_625_6525" x1="25.6994" y1="60.4539" x2="26.5997" y2="62.0133" gradientUnits="userSpaceOnUse">
<stop stop-color="white"/>
<stop offset="1" stop-color="white" stop-opacity="0"/>
</linearGradient>
<linearGradient id="paint10_linear_625_6525" x1="117.053" y1="41.175" x2="121.991" y2="49.7273" gradientUnits="userSpaceOnUse">
<stop stop-color="white"/>
<stop offset="1" stop-color="white" stop-opacity="0"/>
</linearGradient>
</defs>
</svg>
