<svg width="133" height="81" viewBox="0 0 133 81" fill="none" xmlns="http://www.w3.org/2000/svg">
<g opacity="0.7">
<path d="M40.8023 3.94968C63.3582 3.94968 85.7749 3.94968 108.635 3.94967C108.887 6.19395 109.131 8.42084 109.453 11.3088C106 11.3088 102.99 11.1696 100.006 11.3871C98.9883 11.4654 98.0488 12.4658 97.0746 13.0399C98.0053 13.6749 98.9361 14.8492 99.8756 14.8579C109.296 14.9971 118.726 14.9971 128.155 14.8666C129.138 14.8492 130.104 13.7184 131.069 13.1008C130.112 12.5093 129.182 11.448 128.19 11.3958C124.284 11.187 120.361 11.1522 116.447 11.3175C113.794 11.4219 112.837 10.3694 112.793 7.80322C112.758 5.37627 112.358 2.94932 112.089 0.322294C110.427 0.217909 109.148 0.0700297 107.861 0.0700298C85.5313 0.061333 63.1929 0.130927 40.8632 0.000447353C37.1401 -0.0256486 35.9223 1.10519 36.5312 4.81086C37.1053 8.32515 37.1662 11.9351 37.4707 15.6843C32.9734 15.9975 28.9198 16.0062 24.9619 16.6151C12.2443 18.5636 3.1454 29.0891 3.10191 41.9633C3.08451 46.591 3.67602 51.2187 3.99788 55.8465C4.20665 58.8997 4.92866 61.6833 1.42305 64.0581C-1.49973 66.0414 0.422698 71.1911 4.11097 72.2349C5.06783 72.5046 6.13778 72.5655 7.12944 72.4437C11.1222 71.9566 13.9406 73.1918 16.8286 76.3668C22.5349 82.6212 31.7817 81.4991 36.8444 74.8794C37.7752 73.6528 39.7846 72.609 41.3155 72.5829C53.3459 72.3915 65.385 72.3741 77.4241 72.5829C79.103 72.609 81.2515 73.7398 82.3389 75.0533C88.4019 82.3777 99.9191 82.2124 104.208 74.3661C104.73 73.4093 106.417 72.6525 107.617 72.5742C111.08 72.3306 114.62 72.8177 118.03 72.3132C119.691 72.0696 122.066 70.4865 122.405 69.0947C122.814 67.4245 121.936 64.1973 120.674 63.5884C117.308 61.9617 117.177 59.4477 117.108 56.4902C117.047 54.0545 116.751 51.6189 116.508 48.4525C119.77 48.4525 122.753 48.6091 125.711 48.3568C126.668 48.2785 127.538 47.1129 128.451 46.4518C127.581 45.869 126.711 44.7903 125.833 44.7729C118.439 44.6338 111.045 44.6251 103.651 44.7816C102.72 44.799 101.815 46.0691 100.893 46.7563C101.789 47.3304 102.659 48.322 103.59 48.3916C106.443 48.6091 109.331 48.4699 112.558 48.4699C113.011 53.0542 113.42 57.1861 113.872 61.7616C109.079 62.0226 105.104 63.1012 101.302 58.4996C95.8046 51.8363 86.2707 52.9933 81.0341 59.8653C80.1729 60.9961 78.3288 61.9704 76.9196 61.9965C67.4988 62.1792 58.0694 62.1705 48.6486 61.9704C47.4395 61.9443 45.2996 60.4916 45.2126 59.5521C43.4989 41.6588 42.0289 23.7394 40.524 5.81991C40.4892 5.28059 40.6805 4.72387 40.8023 3.94968ZM37.9665 20.486C39.1757 34.3344 40.3674 47.9828 41.5591 61.6398C41.1677 61.9965 40.7675 62.3618 40.3761 62.7185C38.6972 61.6485 36.6443 60.9092 35.3917 59.4652C29.1286 52.2452 19.4382 52.5322 13.8188 60.0567C12.8445 61.3615 10.6785 61.7703 8.35596 62.9534C7.71225 55.2985 6.85107 49.1136 6.74668 42.9201C6.49443 27.0884 20.1167 17.224 37.9665 20.486ZM83.1392 66.5372C83.0696 61.6746 86.6796 57.969 91.5248 57.9255C96.918 57.882 101.876 62.7446 101.929 68.1204C101.972 72.9221 98.2837 76.68 93.482 76.7235C88.0975 76.7757 83.2175 71.974 83.1392 66.5372ZM16.0805 66.2937C16.1153 61.4659 19.8818 57.795 24.6574 57.9255C30.1376 58.0821 34.8089 62.9099 34.7741 68.3727C34.7393 73.1918 30.9988 76.8105 26.1536 76.7322C20.7343 76.6452 16.037 71.7739 16.0805 66.2937ZM59.2089 68.825C59.2089 68.8337 59.2089 68.8337 59.2089 68.8424C53.4329 68.8424 47.657 68.912 41.881 68.7815C40.8284 68.7554 39.7933 67.9116 38.7494 67.4506C39.7324 66.92 40.7066 65.937 41.6983 65.9283C53.2502 65.8239 64.8022 65.8326 76.3541 65.9544C77.3371 65.9631 78.3114 66.9896 79.2856 67.5376C78.2244 67.9725 77.1718 68.7554 76.1019 68.7815C70.4738 68.8946 64.837 68.825 59.2089 68.825ZM118.908 67.3201C112.941 70.0167 106.4 69.0947 106.13 65.8587C110.445 66.3459 114.898 64.9019 118.908 67.3201ZM3.35418 66.2241C6.26826 66.0936 8.42555 65.9109 10.5828 65.9544C11.1048 65.9631 11.7833 66.6068 12.0703 67.1288C12.2269 67.4158 11.7485 68.4771 11.5223 68.4858C8.95617 68.5902 6.0334 70.095 3.35418 66.2241Z" fill="url(#paint0_linear_622_6397)"/>
<path d="M100.606 37.4051C105.233 37.4051 109.861 37.5355 114.471 37.3181C115.628 37.2659 116.733 36.1089 117.864 35.4565C116.733 34.8128 115.602 33.6385 114.463 33.6211C104.929 33.4732 95.3863 33.4732 85.8523 33.6298C84.7215 33.6472 83.6081 34.8389 82.4946 35.4826C83.6168 36.1176 84.7215 37.2572 85.8697 37.3007C90.7759 37.5095 95.6907 37.3877 100.606 37.3877C100.606 37.3964 100.606 37.3964 100.606 37.4051Z" fill="url(#paint1_linear_622_6397)"/>
<path d="M91.5155 26.1574C95.8476 26.1574 100.188 26.2879 104.512 26.0704C105.616 26.0095 106.669 24.8352 107.748 24.1741C106.765 23.5826 105.79 22.4865 104.799 22.4691C95.9867 22.3386 87.1748 22.3473 78.3716 22.4778C77.3538 22.4952 76.3535 23.5478 75.3444 24.1219C76.4057 24.8004 77.4408 26.0095 78.5282 26.0704C82.8428 26.2879 87.1835 26.1574 91.5155 26.1574Z" fill="url(#paint2_linear_622_6397)"/>
<path d="M87.8625 48.4787C89.8806 48.4787 91.9423 48.7049 93.9082 48.3917C95.0478 48.2091 96.0481 47.1478 97.1094 46.4867C95.9785 45.8865 94.8651 44.8426 93.6994 44.7817C89.6719 44.5643 85.6182 44.5382 81.5907 44.7904C80.3554 44.8687 79.1898 46.0431 77.9893 46.7129C79.2594 47.2957 80.4859 48.1917 81.8168 48.383C83.7915 48.6701 85.8444 48.4613 87.8625 48.4613C87.8625 48.4526 87.8625 48.4613 87.8625 48.4787Z" fill="url(#paint3_linear_622_6397)"/>
<path d="M118.872 26.1143C120.464 26.1143 122.082 26.3057 123.631 26.0361C124.414 25.9056 125.049 24.9487 125.753 24.3659C125.109 23.7483 124.501 22.6435 123.831 22.6C120.516 22.3912 117.185 22.3738 113.871 22.5304C113.14 22.5652 112.461 23.6004 111.765 24.1745C112.548 24.8269 113.253 25.8708 114.123 26.0448C115.654 26.3579 117.289 26.1317 118.872 26.1317C118.872 26.1317 118.872 26.123 118.872 26.1143Z" fill="url(#paint4_linear_622_6397)"/>
<path d="M127.12 32.6558C125.023 33.7257 123.309 34.6043 121.587 35.4829C123.431 36.1179 125.284 37.2748 127.128 37.2487C129.094 37.2226 131.043 36.0831 133 35.4307C131.138 34.5608 129.277 33.6735 127.12 32.6558Z" fill="url(#paint5_linear_622_6397)"/>
<path d="M86.8007 10.4568C84.4869 11.3876 80.8333 12.4662 80.9029 12.8838C81.538 16.4677 84.6869 14.8584 86.7486 14.8236C88.845 14.7888 90.924 13.7014 93.0117 13.0664C91.011 12.2313 88.9928 11.3789 86.8007 10.4568Z" fill="url(#paint6_linear_622_6397)"/>
<path d="M23.6043 47.1133C25.4833 47.1133 27.3709 47.1133 29.2499 47.1133C36.6526 47.122 36.6874 47.122 36.2176 39.9368C35.9306 35.6047 35.5043 31.2814 35.1564 26.9581C34.9911 24.8965 34.417 23.5482 31.8421 23.3655C20.4206 22.5478 10.7562 30.9509 10.1472 42.3115C9.97326 45.5736 10.9736 47.2438 14.4879 47.0611C17.5151 46.9045 20.5597 47.0263 23.6043 47.0263C23.6043 47.0611 23.6043 47.0872 23.6043 47.1133ZM14.2966 43.1901C14.4184 34.5 20.5249 27.6453 28.206 27.2713C29.276 27.2191 31.268 28.1933 31.3724 28.9066C32.0248 33.5605 32.2858 38.2753 32.6859 43.1988C26.3097 43.1901 20.4553 43.1901 14.2966 43.1901Z" fill="url(#paint7_linear_622_6397)"/>
<path d="M93.4291 72.7396C96.0909 72.4612 97.9699 70.8345 98.0047 67.5116C98.0308 64.3887 95.2907 61.7877 92.0982 61.8834C88.7578 61.9791 87.079 63.9711 86.9746 67.1114C86.8615 70.2604 89.706 72.7917 93.4291 72.7396Z" fill="url(#paint8_linear_622_6397)"/>
<path d="M24.37 61.9011C21.8474 61.9794 20.0902 63.8149 19.8727 66.9899C19.6726 70.0345 22.4737 72.7573 25.6748 72.7486C28.9717 72.7399 30.8245 70.9566 30.9376 67.7033C31.0594 64.4673 28.4063 61.9446 24.37 61.9011Z" fill="url(#paint9_linear_622_6397)"/>
</g>
<defs>
<linearGradient id="paint0_linear_622_6397" x1="-0.559082" y1="35.2392" x2="129.734" y2="60.7711" gradientUnits="userSpaceOnUse">
<stop stop-color="#FFF2CB"/>
<stop offset="1" stop-color="white" stop-opacity="0"/>
</linearGradient>
<linearGradient id="paint1_linear_622_6397" x1="82.3435" y1="35.2328" x2="99.1556" y2="53.4309" gradientUnits="userSpaceOnUse">
<stop stop-color="#FFF2CB"/>
<stop offset="1" stop-color="white" stop-opacity="0"/>
</linearGradient>
<linearGradient id="paint2_linear_622_6397" x1="75.206" y1="24.048" x2="91.5875" y2="40.7688" gradientUnits="userSpaceOnUse">
<stop stop-color="#FFF2CB"/>
<stop offset="1" stop-color="white" stop-opacity="0"/>
</linearGradient>
<linearGradient id="paint3_linear_622_6397" x1="77.9076" y1="46.338" x2="92.6392" y2="54.925" gradientUnits="userSpaceOnUse">
<stop stop-color="#FFF2CB"/>
<stop offset="1" stop-color="white" stop-opacity="0"/>
</linearGradient>
<linearGradient id="paint4_linear_622_6397" x1="111.706" y1="24.0829" x2="123.759" y2="29.4449" gradientUnits="userSpaceOnUse">
<stop stop-color="#FFF2CB"/>
<stop offset="1" stop-color="white" stop-opacity="0"/>
</linearGradient>
<linearGradient id="paint5_linear_622_6397" x1="121.538" y1="34.6665" x2="132.352" y2="37.9003" gradientUnits="userSpaceOnUse">
<stop stop-color="#FFF2CB"/>
<stop offset="1" stop-color="white" stop-opacity="0"/>
</linearGradient>
<linearGradient id="paint6_linear_622_6397" x1="80.8502" y1="12.5391" x2="92.2778" y2="16.0404" gradientUnits="userSpaceOnUse">
<stop stop-color="#FFF2CB"/>
<stop offset="1" stop-color="white" stop-opacity="0"/>
</linearGradient>
<linearGradient id="paint7_linear_622_6397" x1="10.0162" y1="33.7305" x2="36.6495" y2="37.2662" gradientUnits="userSpaceOnUse">
<stop stop-color="#FFF2CB"/>
<stop offset="1" stop-color="white" stop-opacity="0"/>
</linearGradient>
<linearGradient id="paint8_linear_622_6397" x1="86.9242" y1="66.6346" x2="98.1459" y2="68.0068" gradientUnits="userSpaceOnUse">
<stop stop-color="#FFF2CB"/>
<stop offset="1" stop-color="white" stop-opacity="0"/>
</linearGradient>
<linearGradient id="paint9_linear_622_6397" x1="19.8153" y1="66.6496" x2="31.0815" y2="68.0345" gradientUnits="userSpaceOnUse">
<stop stop-color="#FFF2CB"/>
<stop offset="1" stop-color="white" stop-opacity="0"/>
</linearGradient>
</defs>
</svg>
